<svg id="search" xmlns="http://www.w3.org/2000/svg" width="20" height="20" viewBox="0 0 20 20">
  <path id="Path_491" data-name="Path 491" d="M4.322,144.786l-.679,2.534-2.481.052a9.767,9.767,0,0,1-.072-9.1h0l2.209.4.968,2.2a5.819,5.819,0,0,0,.055,3.918Z" transform="translate(0 -132.749)" fill="#fbbb00"/>
  <path id="Path_492" data-name="Path 492" d="M270.993,208.176a9.746,9.746,0,0,1-3.476,9.425h0l-2.782-.142L264.341,215a5.811,5.811,0,0,0,2.5-2.967h-5.214v-3.857h9.365Z" transform="translate(-251.164 -199.747)" fill="#518ef8"/>
  <path id="Path_493" data-name="Path 493" d="M45.2,314.978h0A9.753,9.753,0,0,1,30.509,312l3.16-2.586a5.8,5.8,0,0,0,8.356,2.969Z" transform="translate(-29.347 -297.125)" fill="#28b446"/>
  <path id="Path_494" data-name="Path 494" d="M43.507,2.245,40.349,4.831A5.8,5.8,0,0,0,31.8,7.866l-3.176-2.6h0A9.752,9.752,0,0,1,43.507,2.245Z" transform="translate(-27.534)" fill="#f14336"/>
</svg>
